<?xml version="1.0" standalone="no"?>
<!DOCTYPE svg PUBLIC "-//W3C//DTD SVG 20010904//EN"
 "http://www.w3.org/TR/2001/REC-SVG-20010904/DTD/svg10.dtd">
<svg version="1.0" xmlns="http://www.w3.org/2000/svg"
 width="512.000000pt" height="512.000000pt" viewBox="0 0 512.000000 512.000000"
 preserveAspectRatio="xMidYMid meet">
<metadata>
Created by potrace 1.16, written by Peter Selinger 2001-2019
</metadata>
<g transform="translate(0.000000,512.000000) scale(0.100000,-0.100000)"
fill="#000000" stroke="none">
<path d="M3930 4245 l-236 -236 -74 35 c-196 89 -430 158 -675 198 -106 18
-175 22 -370 22 -244 1 -323 -6 -525 -45 -816 -159 -1572 -747 -2001 -1558
l-54 -101 49 -93 c213 -405 545 -796 898 -1059 l87 -65 -195 -194 c-107 -106
-194 -198 -194 -204 0 -13 292 -305 305 -305 13 0 3535 3522 3535 3535 0 13
-292 305 -305 305 -6 0 -116 -106 -245 -235z m-1140 -650 c90 -21 235 -79 294
-116 l49 -31 -151 -151 -151 -151 -63 23 c-78 29 -247 40 -341 22 -34 -7 -104
-33 -156 -58 -131 -63 -221 -153 -284 -284 -25 -52 -51 -122 -58 -156 -18 -94
-7 -263 22 -341 l23 -63 -151 -151 -151 -151 -28 44 c-39 62 -98 211 -120 305
-28 116 -26 348 3 464 48 191 133 346 266 486 161 169 356 276 583 319 98 18
320 13 414 -10z"/>
<path d="M4010 3115 l-394 -394 -2 -163 c-1 -179 -15 -256 -73 -397 -55 -136
-118 -228 -236 -346 -118 -118 -210 -181 -346 -236 -141 -58 -218 -72 -397
-73 l-163 -2 -274 -274 c-151 -151 -271 -277 -267 -281 7 -7 147 -40 247 -59
457 -84 956 -34 1411 141 629 243 1205 772 1555 1427 l54 100 -23 49 c-86 178
-276 460 -437 648 -89 104 -236 255 -249 255 -6 0 -189 -178 -406 -395z"/>
</g>
</svg>
